<?xml version="1.0" encoding="utf-8"?><svg xmlns="http://www.w3.org/2000/svg" xmlns:xlink="http://www.w3.org/1999/xlink" width="200px" height="200px" viewBox="0 0 100 100" preserveAspectRatio="xMidYMid" style="margin-right:-2px;display:block;background-repeat-y:initial;background-repeat-x:initial;animation-play-state:paused" ><g transform="translate(70,50)" style="transform:matrix(1, 0, 0, 1, 70, 50);animation-play-state:paused" ><g transform="rotate(0)" style="transform:matrix(1, 0, 0, 1, 0, 0);animation-play-state:paused" ><circle cx="0" cy="0" r="6" fill="#ffffff" fill-opacity="0.125" transform="matrix(1,0,0,1,0,0)" style="transform:matrix(1, 0, 0, 1, 0, 0);animation-play-state:paused" ></circle></g></g>
<g transform="translate(64.14213562373095,64.14213562373095)" style="transform:matrix(1, 0, 0, 1, 64.1421, 64.1421);animation-play-state:paused" ><g transform="rotate(45)" style="transform:matrix(0.707107, 0.707107, -0.707107, 0.707107, 0, 0);animation-play-state:paused" ><circle cx="0" cy="0" r="6" fill="#ffffff" fill-opacity="0.25" transform="matrix(1,0,0,1,0,0)" style="transform:matrix(1, 0, 0, 1, 0, 0);animation-play-state:paused" ></circle></g></g>
<g transform="translate(50,70)" style="transform:matrix(1, 0, 0, 1, 50, 70);animation-play-state:paused" ><g transform="rotate(90)" style="transform:matrix(6.12323e-17, 1, -1, 6.12323e-17, 0, 0);animation-play-state:paused" ><circle cx="0" cy="0" r="6" fill="#ffffff" fill-opacity="0.375" transform="matrix(1,0,0,1,0,0)" style="transform:matrix(1, 0, 0, 1, 0, 0);animation-play-state:paused" ></circle></g></g>
<g transform="translate(35.85786437626905,64.14213562373095)" style="transform:matrix(1, 0, 0, 1, 35.8579, 64.1421);animation-play-state:paused" ><g transform="rotate(135)" style="transform:matrix(-0.707107, 0.707107, -0.707107, -0.707107, 0, 0);animation-play-state:paused" ><circle cx="0" cy="0" r="6" fill="#ffffff" fill-opacity="0.5" transform="matrix(1,0,0,1,0,0)" style="transform:matrix(1, 0, 0, 1, 0, 0);animation-play-state:paused" ></circle></g></g>
<g transform="translate(30,50)" style="transform:matrix(1, 0, 0, 1, 30, 50);animation-play-state:paused" ><g transform="rotate(180)" style="transform:matrix(-1, 1.22465e-16, -1.22465e-16, -1, 0, 0);animation-play-state:paused" ><circle cx="0" cy="0" r="6" fill="#ffffff" fill-opacity="0.625" transform="matrix(1,0,0,1,0,0)" style="transform:matrix(1, 0, 0, 1, 0, 0);animation-play-state:paused" ></circle></g></g>
<g transform="translate(35.85786437626905,35.85786437626905)" style="transform:matrix(1, 0, 0, 1, 35.8579, 35.8579);animation-play-state:paused" ><g transform="rotate(225)" style="transform:matrix(-0.707107, -0.707107, 0.707107, -0.707107, 0, 0);animation-play-state:paused" ><circle cx="0" cy="0" r="6" fill="#ffffff" fill-opacity="0.75" transform="matrix(1,0,0,1,0,0)" style="transform:matrix(1, 0, 0, 1, 0, 0);animation-play-state:paused" ></circle></g></g>
<g transform="translate(49.99999999999999,30)" style="transform:matrix(1, 0, 0, 1, 50, 30);animation-play-state:paused" ><g transform="rotate(270)" style="transform:matrix(-1.83697e-16, -1, 1, -1.83697e-16, 0, 0);animation-play-state:paused" ><circle cx="0" cy="0" r="6" fill="#ffffff" fill-opacity="0.875" transform="matrix(1,0,0,1,0,0)" style="transform:matrix(1, 0, 0, 1, 0, 0);animation-play-state:paused" ></circle></g></g>
<g transform="translate(64.14213562373095,35.85786437626905)" style="transform:matrix(1, 0, 0, 1, 64.1421, 35.8579);animation-play-state:paused" ><g transform="rotate(315)" style="transform:matrix(0.707107, -0.707107, 0.707107, 0.707107, 0, 0);animation-play-state:paused" ><circle cx="0" cy="0" r="6" fill="#ffffff" fill-opacity="1" transform="matrix(1,0,0,1,0,0)" style="transform:matrix(1, 0, 0, 1, 0, 0);animation-play-state:paused" ></circle></g></g><!-- generated by https://loading.io/ --></svg>